<svg width="104" height="101" viewBox="0 0 104 101" fill="none" xmlns="http://www.w3.org/2000/svg">
<path d="M0 18.262C0 14.9745 2.68384 12.3096 5.99445 12.3096H74.3312C80.9527 12.3096 86.3201 17.6395 86.3201 24.2143V92.0715C86.3201 95.359 83.6364 98.0238 80.3257 98.0238H11.9889C5.36761 98.0238 0 92.6941 0 86.1191V18.262Z" fill="url(#paint0_linear_44_116)" fill-opacity="0.9"/>
<path d="M2.99719 1H57.5467C59.2018 1 60.544 2.3325 60.544 3.97619V26.5952C60.544 28.2389 59.2018 29.5714 57.5467 29.5714H5.99442C4.33911 29.5714 2.99719 28.2389 2.99719 26.5952V1Z" fill="#2BD5E0"/>
<path d="M31.7706 48.3215C31.7706 45.8559 33.7835 43.8572 36.2665 43.8572H103.105C103.436 43.8572 103.704 44.1237 103.704 44.4524V53.6786C103.704 56.1441 101.691 58.1429 99.2082 58.1429H32.3701C32.039 58.1429 31.7706 57.8762 31.7706 57.5477V48.3215Z" fill="#2B5EE0"/>
<path d="M2.99719 44.4524C2.99719 44.1237 3.26556 43.8572 3.59664 43.8572H11.3894C14.7 43.8572 17.3839 46.5221 17.3839 49.8096V57.5477C17.3839 57.8762 17.1155 58.1429 16.7844 58.1429H8.99165C5.68103 58.1429 2.99719 55.478 2.99719 52.1905V44.4524Z" fill="#392BE0"/>
<path d="M77.928 1.29761H99.2083C101.526 1.29761 103.404 3.16308 103.404 5.46427V26.5952C103.404 28.0746 102.197 29.2738 100.707 29.2738H89.9169C81.8058 29.2738 75.2305 22.7446 75.2305 14.6905V3.97618C75.2305 2.49683 76.4384 1.29761 77.928 1.29761Z" fill="#2BAAE0" stroke="white"/>
<path d="M60.5441 75.4047C60.5441 73.7612 61.8862 72.4285 63.5413 72.4285H100.707C102.362 72.4285 103.704 73.7612 103.704 75.4047V101H63.5413C61.8862 101 60.5441 99.6672 60.5441 98.0237V75.4047Z" fill="#05BAAF"/>
<path d="M2.99719 75.4047C2.99719 73.7612 4.33911 72.4285 5.99442 72.4285H31.1711C39.4477 72.4285 46.1573 79.091 46.1573 87.3094V98.0237C46.1573 99.6672 44.8153 101 43.16 101H7.49303C5.01007 101 2.99719 99.0011 2.99719 96.5356V75.4047Z" fill="#0599BA"/>
<defs>
<linearGradient id="paint0_linear_44_116" x1="43.1601" y1="5.46433" x2="66.5214" y2="114.758" gradientUnits="userSpaceOnUse">
<stop stop-color="#0599BA"/>
<stop offset="0.46875" stop-color="#2BD5E0"/>
<stop offset="0.807292" stop-color="#392BE0"/>
</linearGradient>
</defs>
</svg>
